<svg height="25" width="148" xmlns="http://www.w3.org/2000/svg"><g fill="none" fill-rule="evenodd"><path d="m37 6.299h5.227c.746 0 1.434.155 2.062.466.629.311 1.123.735 1.484 1.27s.542 1.12.542 1.754c0 .672-.165 1.254-.495 1.746-.33.491-.762.868-1.297 1.129v.15c.697.248 1.25.643 1.661 1.185.41.541.616 1.191.616 1.95 0 .735-.196 1.385-.588 1.951a3.817 3.817 0 0 1 -1.587 1.307c-.665.305-1.403.457-2.212.457h-5.413zm5.04 5.45c.548 0 .986-.152 1.316-.457s.495-.688.495-1.148c0-.448-.159-.824-.476-1.13-.318-.304-.738-.457-1.26-.457h-2.595v3.192zm.28 5.619c.61 0 1.086-.159 1.428-.476s.513-.731.513-1.241-.174-.927-.522-1.251c-.349-.324-.847-.485-1.494-.485h-2.725v3.453zm12.927 2.595c-1.307 0-2.492-.308-3.556-.924a6.711 6.711 0 0 1 -2.511-2.53c-.61-1.07-.915-2.246-.915-3.528 0-1.281.305-2.457.915-3.528a6.711 6.711 0 0 1 2.51-2.529c1.066-.616 2.25-.924 3.558-.924 1.306 0 2.492.308 3.556.924a6.711 6.711 0 0 1 2.51 2.53c.61 1.07.915 2.246.915 3.527 0 1.282-.305 2.458-.915 3.528a6.711 6.711 0 0 1 -2.51 2.53c-1.064.616-2.25.924-3.556.924zm0-2.39a4.52 4.52 0 0 0 2.258-.578 4.177 4.177 0 0 0 1.615-1.624c.392-.697.588-1.494.588-2.39s-.196-1.692-.588-2.389a4.177 4.177 0 0 0 -1.615-1.624 4.52 4.52 0 0 0 -2.258-.579 4.47 4.47 0 0 0 -2.25.579 4.195 4.195 0 0 0 -1.605 1.624c-.392.697-.588 1.493-.588 2.39 0 .895.196 1.692.588 2.389a4.195 4.195 0 0 0 1.605 1.624 4.47 4.47 0 0 0 2.25.578zm15.353 2.39c-1.307 0-2.492-.308-3.556-.924a6.711 6.711 0 0 1 -2.51-2.53c-.61-1.07-.915-2.246-.915-3.528 0-1.281.305-2.457.914-3.528a6.711 6.711 0 0 1 2.511-2.529c1.064-.616 2.25-.924 3.556-.924 1.307 0 2.492.308 3.556.924a6.711 6.711 0 0 1 2.51 2.53c.61 1.07.915 2.246.915 3.527 0 1.282-.305 2.458-.914 3.528a6.711 6.711 0 0 1 -2.511 2.53c-1.064.616-2.25.924-3.556.924zm0-2.39a4.52 4.52 0 0 0 2.259-.578 4.177 4.177 0 0 0 1.614-1.624c.392-.697.588-1.494.588-2.39s-.196-1.692-.588-2.389a4.177 4.177 0 0 0 -1.614-1.624 4.52 4.52 0 0 0 -2.259-.579 4.47 4.47 0 0 0 -2.25.579 4.195 4.195 0 0 0 -1.605 1.624c-.392.697-.588 1.493-.588 2.39 0 .895.196 1.692.588 2.389a4.195 4.195 0 0 0 1.606 1.624 4.47 4.47 0 0 0 2.249.578zm9.23-11.273h2.52v5.73h.15l4.89-5.73h3.043v.149l-4.833 5.524 5.338 7.542v.149h-3.08l-3.994-5.693-1.512 1.773v3.92h-2.52v-13.365zm13.949-.3h3.248l3.546 9.39h.15l3.545-9.39h3.267v13.365h-2.501v-6.589l.15-2.221h-.15l-3.398 8.81h-1.96l-3.416-8.81h-.149l.15 2.221v6.59h-2.483v-13.366zm20.8 0h2.894l5.021 13.365h-2.781l-1.12-3.192h-5.115l-1.12 3.192h-2.781zm3.193 7.859-1.176-3.36-.486-1.606h-.149l-.485 1.606-1.195 3.36h3.49zm6.781-7.859h4.872c.871 0 1.646.18 2.324.541s1.204.862 1.577 1.503c.374.64.56 1.366.56 2.175 0 .858-.27 1.62-.812 2.286a4.617 4.617 0 0 1 -2.044 1.447l-.018.13 3.584 5.134v.15h-2.894l-3.453-5.022h-1.176v5.021h-2.52zm4.853 6.03c.573 0 1.04-.175 1.4-.523.361-.349.542-.79.542-1.326 0-.51-.172-.945-.514-1.306s-.806-.542-1.39-.542h-2.371v3.696h2.333zm7.23-6.03h2.52v5.73h.15l4.89-5.73h3.043v.15l-4.835 5.525 5.34 7.541v.15h-3.08l-3.996-5.694-1.512 1.773v3.92h-2.52z" fill="#fff" fill-rule="nonzero"/><circle cx="12.5" cy="12.5" fill="#5267df" r="12.5"/><path d="m9 9v10l3.54-3.44 3.538 3.44v-10a2 2 0 0 0 -2-2h-3.078a2 2 0 0 0 -2 2z" fill="#fff"/></g></svg>